PathFileType	4	(X/Y/Z)	D:\Share\Shared_Data\Ergonomics\Sit To Stand Pertubation\S2\Perturbed.trc
DataRate	CameraRate	NumFrames	NumMarkers	Units	OrigDataRate	OrigDataStartFrame	OrigNumFrames	
100	100	19	18	m	100	13591	241
Frame#	Time	R_Toe			R_ASIS			R_Pelvis			V_Sacral			L_Pelvis			L_ASIS			Clavical			R_Acromium			L_Acromium			Sternum			Torso			R_Thigh_Med			R_Thigh_Lat			R_Thigh			R_Shank_Med			R_Shank_Lat			R_Shank			R_Heel			
		X1	Y1	Z1	X2	Y2	Z2	X3	Y3	Z3	X4	Y4	Z4	X5	Y5	Z5	X6	Y6	Z6	X7	Y7	Z7	X8	Y8	Z8	X9	Y9	Z9	X10	Y10	Z10	X11	Y11	Z11	X12	Y12	Z12	X13	Y13	Z13	X14	Y14	Z14	X15	Y15	Z15	X16	Y16	Z16	X17	Y17	Z17	X18	Y18	Z18	

13591	135.9	0.43012323	0.064045654	0.14471646	0.44874173	1.027078	0.14453033	0.37472278	1.0241068	0.19228494	0.22665381	1.0128442	0.035958878	0.3117869	1.0221603	-0.14865039	0.40861005	1.0370599	-0.13111943	0.41687045	1.4549939	0.0086361771	0.32096829	1.4743981	0.21868144	0.29640509	1.4778314	-0.17136543	0.47197025	1.2987299	0.0021148939	0.42320349	1.4159133	-0.10756998	0.35036639	0.49528638	0.091775085	0.33760461	0.51997845	0.18107401	0.44027344	0.67666064	0.16218314	0.29743042	0.10861953	0.10355596	0.27168369	0.10141597	0.19378763	0.29765286	0.37657117	0.21214566	0.19292891	0.062681026	0.14503841
13592	135.91	0.43011554	0.064052315	0.14471613	0.4488811	1.0269343	0.14440135	0.37490851	1.0240693	0.19220979	0.22675484	1.0129988	0.035943378	0.31187939	1.0222072	-0.14873401	0.40871805	1.0369928	-0.13120183	0.41721475	1.4549036	0.0085516853	0.32120569	1.4743683	0.2185704	0.2968306	1.4779541	-0.17150517	0.47222458	1.2986	0.0020000803	0.42355954	1.4158571	-0.10767906	0.34996475	0.49526596	0.091650909	0.33734427	0.51996295	0.18098541	0.44008047	0.67655359	0.1618344	0.29740335	0.10861202	0.10355812	0.27164841	0.1014075	0.19378685	0.29743069	0.37657101	0.21210626	0.19291823	0.062657246	0.14504161
13593	135.92	0.43011023	0.064057678	0.14471283	0.448978	1.0268231	0.14427263	0.37503873	1.0240525	0.19212154	0.22681012	1.013163	0.035921806	0.31191827	1.0222741	-0.14882037	0.40876901	1.0369561	-0.13129372	0.41755115	1.4548433	0.0084486895	0.32147745	1.4744039	0.2184534	0.29723441	1.4781252	-0.17165546	0.4724588	1.2985004	0.0018635668	0.42389856	1.4158395	-0.10780485	0.34965112	0.4952532	0.09153347	0.33713623	0.51995276	0.18089081	0.43990308	0.67646863	0.16154459	0.29738834	0.10860746	0.10355098	0.27162164	0.1014061	0.19377994	0.29725125	0.37658054	0.21205385	0.19291159	0.062645138	0.14503862
13594	135.93	0.43010703	0.064061234	0.14470776	0.44903711	1.026745	0.14414706	0.37511014	1.0240552	0.19202179	0.226821	1.0133333	0.035889065	0.31190817	1.022356	-0.14891066	0.40876855	1.0369449	-0.13139334	0.41787946	1.4548077	0.0083306217	0.32178348	1.4744993	0.21833276	0.29761902	1.4783342	-0.17181631	0.47267331	1.298426	0.0017102411	0.4242215	1.4158516	-0.10794418	0.34943356	0.49524655	0.091425362	0.33698752	0.51994757	0.18079286	0.43975058	0.67640674	0.16132652	0.29738599	0.10860567	0.10353455	0.27160406	0.10141091	0.19376762	0.29712201	0.37659924	0.2119913	0.19290915	0.062644371	0.14502986
13595	135.94	0.4301055	0.064062943	0.14470172	0.44906534	1.0266979	0.14402713	0.37512262	1.0240743	0.19191234	0.22679083	1.0135038	0.03584153	0.3118559	1.0224463	-0.14900494	0.40872427	1.0369535	-0.13149878	0.41819809	1.4547908	0.0082013865	0.3221214	1.474644	0.21821017	0.29798563	1.4785681	-0.17198616	0.47286868	1.2983706	0.0015450225	0.4245282	1.4158837	-0.108094	0.34931384	0.49524484	0.091328133	0.33690143	0.51994708	0.18069432	0.43963095	0.67636938	0.1611837	0.29739536	0.10860638	0.10351006	0.27159564	0.1014212	0.19375089	0.29704694	0.37662564	0.21192102	0.19291043	0.062653908	0.14501689
13596	135.95	0.43010526	0.064063057	0.14469505	0.44906958	1.026679	0.14391412	0.37507913	1.0241062	0.19179471	0.22672443	1.0136665	0.035777084	0.31177036	1.0225377	-0.14910202	0.40864536	1.0369746	-0.13160796	0.41850403	1.4547856	0.0080648603	0.32248581	1.4748259	0.21808592	0.29833554	1.4788145	-0.17216125	0.47304498	1.298327	0.0013723004	0.42481781	1.4159252	-0.10825169	0.34928784	0.49524701	0.091242401	0.33687735	0.5199505	0.18059784	0.43954956	0.67635645	0.16111148	0.29741403	0.10860907	0.10347939	0.27159564	0.10143619	0.19373091	0.29702649	0.37665738	0.2118445	0.19291464	0.062672131	0.14500188
13597	135.96	0.43010583	0.064061935	0.14468805	0.44905399	1.0266835	0.14380766	0.37498618	1.0241464	0.19167055	0.22662805	1.0138128	0.035695011	0.31166162	1.0226226	-0.1492005	0.40854202	1.037002	-0.13171886	0.41879367	1.4547858	0.0079242616	0.32286847	1.4750302	0.21795938	0.29867041	1.4790638	-0.17233603	0.4732016	1.2982885	0.0011953895	0.42508859	1.415967	-0.10841544	0.34934613	0.49525189	0.091167931	0.33691132	0.51995648	0.18050577	0.43950891	0.67636658	0.161099	0.29743878	0.10861285	0.10344486	0.27160291	0.10145497	0.19370876	0.29705786	0.37669165	0.21176317	0.19292079	0.062696808	0.14498672
13598	135.97	0.43010696	0.06405983	0.14468095	0.44901776	1.0267059	0.14370561	0.37485394	1.0241902	0.19154184	0.22650877	1.0139341	0.035595913	0.31153967	1.0226938	-0.14930016	0.4084241	1.0370294	-0.13183008	0.41906424	1.4547852	0.0077812886	0.32325974	1.4752421	0.21782944	0.29899075	1.4793086	-0.17250468	0.47333786	1.2982495	0.0010164074	0.42533835	1.4160023	-0.10858432	0.34947552	0.49525778	0.091103493	0.33699701	0.51996313	0.18041968	0.439509	0.67639648	0.1611315	0.29746594	0.10861662	0.10340874	0.27161584	0.10147622	0.19368565	0.2971358	0.37672491	0.21167888	0.19292802	0.062725105	0.14497304
13599	135.98	0.43010858	0.064056915	0.14467404	0.44895801	1.02674	0.14360445	0.3746954	1.0242335	0.19141043	0.22637425	1.0140231	0.035481766	0.31141293	1.0227456	-0.14940199	0.40829996	1.0370519	-0.13194093	0.41931403	1.4547783	0.0076358604	0.32365012	1.4754478	0.21769525	0.29929477	1.4795422	-0.17266234	0.47345407	1.2982051	0.0008364464	0.4255643	1.4160264	-0.10875771	0.34966077	0.49526294	0.091047089	0.33712619	0.51996869	0.18034029	0.43954733	0.67644147	0.16119234	0.29749265	0.10861945	0.10337321	0.27163303	0.10149823	0.19366281	0.29725308	0.37675369	0.21159436	0.19293567	0.062753998	0.14496219
13600	135.99	0.43011087	0.064053406	0.14466751	0.44887473	1.0267791	0.14350055	0.3745242	1.0242721	0.19127739	0.22623215	1.0140746	0.035356083	0.31128769	1.0227746	-0.14950745	0.40817603	1.0370659	-0.13205141	0.41954178	1.4547607	0.0074867592	0.32403036	1.4756366	0.21755655	0.29957849	1.4797593	-0.17280641	0.47355167	1.2981528	0.00065576738	0.42576349	1.416037	-0.10893483	0.34988486	0.49526566	0.090996407	0.33728967	0.51997137	0.18026721	0.43961868	0.6764953	0.16126477	0.29751697	0.10862069	0.1033401	0.27165308	0.10151909	0.19364139	0.29740103	0.37677457	0.21151297	0.19294316	0.062780872	0.14495508
13601	136	0.43011386	0.06404969	0.14466104	0.44877328	1.0268182	0.14339116	0.37435339	1.0243029	0.1911424	0.22609	1.0140865	0.035223492	0.31116843	1.0227792	-0.14961757	0.40805701	1.0370682	-0.13216185	0.41974603	1.4547302	0.0073327188	0.3243913	1.4757991	0.21741399	0.29983612	1.4799548	-0.17293793	0.47363226	1.2980919	0.00047392762	0.42593359	1.4160333	-0.10911453	0.3501301	0.49526437	0.090949242	0.33747717	0.51997003	0.18019899	0.43971518	0.67655066	0.16133339	0.29753772	0.10861961	0.1033106	0.27167465	0.10153693	0.19362227	0.29756989	0.37678528	0.21143806	0.19294992	0.062803925	0.1449519
13602	136.01	0.43011765	0.064046059	0.14465437	0.44866232	1.0268529	0.1432744	0.37419504	1.0243229	0.19100444	0.2259549	1.0140606	0.03508886	0.31105789	1.0227611	-0.14973228	0.4079455	1.0370579	-0.1322726	0.41992484	1.4546858	0.0071733704	0.32472375	1.4759292	0.217269	0.30006165	1.480124	-0.17306152	0.47369693	1.2980232	0.000289931	0.42607303	1.4160165	-0.10929557	0.35037827	0.4952583	0.090903641	0.33767813	0.51996411	0.18013358	0.439827	0.67659985	0.16138477	0.29755411	0.10861555	0.10328503	0.27169626	0.10155025	0.19360591	0.29774899	0.3767847	0.2113721	0.19295549	0.06282196	0.14495215
13603	136.02	0.43012189	0.064042389	0.14464799	0.44855069	1.0268792	0.14314876	0.3740596	1.0243314	0.19086298	0.22583333	1.0140018	0.034956406	0.31095758	1.022723	-0.14985059	0.40784259	1.0370349	-0.13238431	0.42007535	1.4546283	0.0070094395	0.32501926	1.4760226	0.21712349	0.30024936	1.4802629	-0.17318355	0.4737457	1.297949	0.0001025999	0.42618051	1.415988	-0.10947688	0.35061188	0.49524695	0.090857437	0.33788187	0.51995349	0.1800688	0.43994296	0.67663599	0.16140799	0.29756613	0.10860805	0.10326308	0.27171664	0.10155809	0.19359239	0.29792807	0.37677338	0.21131622	0.1929597	0.062834011	0.14495482
13604	136.03	0.43012595	0.064038345	0.14464288	0.44844601	1.0268949	0.14301295	0.37395535	1.0243285	0.19071835	0.22573051	1.0139172	0.034829407	0.31086795	1.0226691	-0.14997095	0.40774802	1.037	-0.13249814	0.42019516	1.4545602	0.0068422146	0.32527097	1.476078	0.21697958	0.30039511	1.4803705	-0.17331003	0.47377853	1.2978711	-8.8919125e-05	0.42625537	1.4159503	-0.10965792	0.35081573	0.49523032	0.090807945	0.33807797	0.51993866	0.18000276	0.44005176	0.67665405	0.16139491	0.29757394	0.10859709	0.103244	0.27173456	0.10156033	0.19358142	0.29809787	0.37675293	0.2112701	0.1929624	0.062839298	0.14495859
13605	136.04	0.43012891	0.064033661	0.14463965	0.44835352	1.0268987	0.14286566	0.3738873	1.0243149	0.19057117	0.2256497	1.0138152	0.034710094	0.31078836	1.022604	-0.15009224	0.4076608	1.036955	-0.13261583	0.42028229	1.4544845	0.0066731348	0.32547354	1.4760961	0.21683916	0.300496	1.4804475	-0.17344412	0.4737959	1.297793	-0.00028479528	0.42629712	1.4159055	-0.10983828	0.350979	0.49520877	0.090752289	0.33825638	0.51991986	0.17993417	0.44014365	0.67665179	0.16134039	0.29757755	0.10858291	0.10322688	0.27174908	0.10155755	0.19357269	0.29825104	0.37672577	0.21123209	0.19296349	0.062837578	0.1449621
13606	136.05	0.43012994	0.064028542	0.14463811	0.44827673	1.0268903	0.14270615	0.37385651	1.024293	0.19042233	0.22559161	1.013704	0.034599312	0.31071719	1.0225325	-0.15021458	0.40757965	1.0369021	-0.13273924	0.42033572	1.4544053	0.0065038304	0.32562402	1.4760792	0.21670369	0.30055029	1.4804978	-0.17358466	0.47379858	1.2977169	-0.00048422232	0.42630582	1.4158566	-0.11001747	0.35109546	0.49518332	0.090688576	0.3384082	0.51989777	0.17986247	0.44021143	0.67663007	0.16124278	0.29757654	0.10856587	0.10321081	0.2717594	0.10155085	0.19356604	0.29838153	0.37669449	0.2111998	0.19296265	0.062829369	0.14496452
13607	136.06	0.43012863	0.064023582	0.14463773	0.44821713	1.0268711	0.14253474	0.37386041	1.0242643	0.19027333	0.22555457	1.0135914	0.0344963	0.31065213	1.0224589	-0.15033896	0.40750327	1.0368438	-0.13286983	0.4203548	1.4543271	0.0063360066	0.32572134	1.4760319	0.21657405	0.30055695	1.4805267	-0.1737262	0.47378741	1.2976462	-0.00068525004	0.42628192	1.415807	-0.11019469	0.35116327	0.4951554	0.090616547	0.33852646	0.51987299	0.17978769	0.44025159	0.67659216	0.16110423	0.29757101	0.10854669	0.10319521	0.2717652	0.10154154	0.19356111	0.29848508	0.37666187	0.2111709	0.19295972	0.062815845	0.14496561
13608	136.07	0.43012485	0.064019432	0.14463831	0.44817468	1.0268431	0.14235318	0.37389249	1.0242316	0.19012608	0.22553505	1.0134832	0.034399025	0.31059067	1.0223873	-0.15046645	0.40743048	1.0367841	-0.13300789	0.42033951	1.4542545	0.0061709981	0.32576663	1.4759601	0.21645068	0.30051575	1.4805393	-0.17386131	0.47376266	1.2975839	-0.00088522023	0.4262265	1.41576	-0.11036891	0.35118353	0.4951265	0.090537254	0.33860745	0.51984644	0.17971031	0.44026407	0.67654315	0.16093039	0.29756134	0.10852639	0.10318002	0.2717666	0.10153078	0.19355745	0.29855884	0.37663049	0.21114354	0.19295468	0.062798439	0.14496571
13609	136.08	0.43011887	0.064016411	0.14463965	0.44814734	1.0268086	0.14216411	0.37394299	1.024197	0.18998195	0.22552823	1.0133831	0.034305035	0.31053033	1.0223212	-0.15059711	0.40736002	1.0367274	-0.13315266	0.42029037	1.4541909	0.0060097632	0.3257626	1.4758707	0.21633342	0.30042694	1.4805403	-0.17398466	0.47372345	1.2975322	-0.0010817487	0.42614105	1.4157188	-0.11053896	0.35116064	0.49509796	0.090452377	0.33865118	0.5198194	0.1796308	0.4402518	0.67648846	0.16073004	0.29754874	0.10850629	0.10316555	0.27176413	0.10151946	0.19355447	0.29860251	0.37660245	0.21111647	0.19294771	0.062778511	0.14496529
